<svg width="735" height="720" viewBox="0 0 735 720" fill="none" xmlns="http://www.w3.org/2000/svg">
<g clip-path="url(#clip0_3057_65254)">
<path d="M0 24C0 10.7452 10.7452 0 24 0H711C724.255 0 735 10.7452 735 24V696C735 709.255 724.255 720 711 720H24C10.7451 720 0 709.255 0 696V24Z" fill="white"/>
<path d="M687 54H127C99.3858 54 77 76.3858 77 104V355.85" stroke="#BAE2FB" stroke-width="2" stroke-dasharray="4 4"/>
<g filter="url(#filter0_dd_3057_65254)">
<rect x="48" y="373.85" width="58" height="58" rx="29" fill="url(#paint0_linear_3057_65254)" fill-opacity="0.3" shape-rendering="crispEdges"/>
<rect x="48.5" y="374.35" width="57" height="57" rx="28.5" stroke="#BAE2FB" stroke-dasharray="4 4" shape-rendering="crispEdges"/>
</g>
<path d="M77 459.35V666.35" stroke="#BAE2FB" stroke-dasharray="4 4"/>
<g filter="url(#filter1_dd_3057_65254)">
<path d="M122 111.85C122 103.013 129.163 95.8499 138 95.8499H248C256.837 95.8499 264 103.013 264 111.85V221.85C264 230.686 256.837 237.85 248 237.85H138C129.163 237.85 122 230.686 122 221.85V111.85Z" fill="url(#paint1_linear_3057_65254)" fill-opacity="0.3" shape-rendering="crispEdges"/>
<path d="M138 237.35C137.313 237.35 136.637 237.305 135.975 237.219L135.91 237.715C134.499 237.531 133.146 237.163 131.875 236.636L132.067 236.174C130.807 235.651 129.631 234.968 128.564 234.148L128.259 234.544C127.151 233.692 126.157 232.699 125.306 231.59L125.702 231.286C124.882 230.219 124.198 229.043 123.676 227.783L123.214 227.974C122.687 226.704 122.319 225.351 122.135 223.94L122.631 223.875C122.545 223.212 122.5 222.536 122.5 221.85V219.886H122V215.957H122.5V212.028H122V208.1H122.5V204.171H122V200.243H122.5V196.314H122V192.386H122.5V188.457H122V184.528H122.5V180.6H122V176.671H122.5V172.743H122V168.814H122.5V164.886H122V160.957H122.5V157.028H122V153.1H122.5V149.171H122V145.243H122.5V141.314H122V137.386H122.5V133.457H122V129.528H122.5V125.6H122V121.671H122.5V117.743H122V113.814H122.5V111.85C122.5 111.163 122.545 110.487 122.631 109.825L122.135 109.76C122.319 108.349 122.687 106.996 123.214 105.725L123.676 105.917C124.198 104.657 124.882 103.481 125.702 102.414L125.306 102.109C126.157 101.001 127.151 100.007 128.259 99.1555L128.564 99.5519C129.631 98.7322 130.807 98.0482 132.067 97.5258L131.875 97.0639C133.146 96.537 134.499 96.1691 135.91 95.9851L135.975 96.4809C136.637 96.3945 137.313 96.3499 138 96.3499H139.964V95.8499H143.893V96.3499H147.821V95.8499H151.75V96.3499H155.679V95.8499H159.607V96.3499H163.536V95.8499H167.464V96.3499H171.393V95.8499H175.321V96.3499H179.25V95.8499H183.179V96.3499H187.107V95.8499H191.036V96.3499H194.964V95.8499H198.893V96.3499H202.821V95.8499H206.75V96.3499H210.679V95.8499H214.607V96.3499H218.536V95.8499H222.464V96.3499H226.393V95.8499H230.321V96.3499H234.25V95.8499H238.179V96.3499H242.107V95.8499H246.036V96.3499H248C248.687 96.3499 249.363 96.3945 250.025 96.4809L250.09 95.9851C251.501 96.1691 252.854 96.537 254.125 97.0639L253.933 97.5258C255.193 98.0482 256.369 98.7322 257.436 99.5519L257.741 99.1555C258.849 100.007 259.843 101.001 260.694 102.109L260.298 102.414C261.118 103.481 261.802 104.657 262.324 105.917L262.786 105.725C263.313 106.996 263.681 108.349 263.865 109.76L263.369 109.825C263.455 110.487 263.5 111.163 263.5 111.85V113.814H264V117.743H263.5V121.671H264V125.6H263.5V129.528H264V133.457H263.5V137.386H264V141.314H263.5V145.243H264V149.171H263.5V153.1H264V157.028H263.5V160.957H264V164.886H263.5V168.814H264V172.743H263.5V176.671H264V180.6H263.5V184.528H264V188.457H263.5V192.386H264V196.314H263.5V200.243H264V204.171H263.5V208.1H264V212.028H263.5V215.957H264V219.886H263.5V221.85C263.5 222.536 263.455 223.212 263.369 223.875L263.865 223.94C263.681 225.351 263.313 226.704 262.786 227.974L262.324 227.783C261.802 229.043 261.118 230.219 260.298 231.286L260.694 231.59C259.843 232.699 258.849 233.692 257.741 234.544L257.436 234.148C256.369 234.968 255.193 235.651 253.933 236.174L254.125 236.636C252.854 237.163 251.501 237.531 250.09 237.715L250.025 237.219C249.363 237.305 248.687 237.35 248 237.35H246.036V237.85H242.107V237.35H238.179V237.85H234.25V237.35H230.321V237.85H226.393V237.35H222.464V237.85H218.536V237.35H214.607V237.85H210.679V237.35H206.75V237.85H202.821V237.35H198.893V237.85H194.964V237.35H191.036V237.85H187.107V237.35H183.179V237.85H179.25V237.35H175.321V237.85H171.393V237.35H167.464V237.85H163.536V237.35H159.607V237.85H155.679V237.35H151.75V237.85H147.821V237.35H143.893V237.85H139.964V237.35H138Z" stroke="url(#paint2_linear_3057_65254)" stroke-opacity="0.4" stroke-dasharray="4 4" shape-rendering="crispEdges"/>
</g>
<rect x="263.5" y="96.3499" width="141" height="141" rx="15.5" stroke="#D7EEF9" stroke-dasharray="4 4"/>
<rect x="404.5" y="96.3499" width="141" height="141" rx="15.5" stroke="#D7EEF9" stroke-dasharray="4 4"/>
<rect x="545.5" y="96.3499" width="141" height="141" rx="15.5" stroke="#D7EEF9" stroke-dasharray="4 4"/>
<rect x="-0.5" y="0.5" width="141" height="141" rx="15.5" transform="matrix(-1 0 0 1 263 237.85)" stroke="#D7EEF9" stroke-dasharray="4 4"/>
<rect x="-0.5" y="0.5" width="141" height="141" rx="15.5" transform="matrix(-1 0 0 1 404 237.85)" stroke="#D7EEF9" stroke-dasharray="4 4"/>
<rect x="-0.5" y="0.5" width="141" height="141" rx="15.5" transform="matrix(-1 0 0 1 545 237.85)" stroke="#D7EEF9" stroke-dasharray="4 4"/>
<g filter="url(#filter2_dd_3057_65254)">
<path d="M687 253.85C687 245.013 679.837 237.85 671 237.85H561C552.163 237.85 545 245.013 545 253.85V363.85C545 372.686 552.163 379.85 561 379.85H671C679.837 379.85 687 372.686 687 363.85V253.85Z" fill="url(#paint3_linear_3057_65254)" fill-opacity="0.3" shape-rendering="crispEdges"/>
<path d="M671 379.35C671.687 379.35 672.363 379.305 673.025 379.219L673.09 379.715C674.501 379.531 675.854 379.163 677.125 378.636L676.933 378.174C678.193 377.651 679.369 376.968 680.436 376.148L680.741 376.544C681.849 375.692 682.843 374.699 683.694 373.59L683.298 373.286C684.118 372.219 684.802 371.043 685.324 369.783L685.786 369.974C686.313 368.704 686.681 367.351 686.865 365.94L686.369 365.875C686.455 365.212 686.5 364.536 686.5 363.85V361.886H687V357.957H686.5V354.028H687V350.1H686.5V346.171H687V342.243H686.5V338.314H687V334.386H686.5V330.457H687V326.528H686.5V322.6H687V318.671H686.5V314.743H687V310.814H686.5V306.886H687V302.957H686.5V299.028H687V295.1H686.5V291.171H687V287.243H686.5V283.314H687V279.386H686.5V275.457H687V271.528H686.5V267.6H687V263.671H686.5V259.743H687V255.814H686.5V253.85C686.5 253.163 686.455 252.487 686.369 251.825L686.865 251.76C686.681 250.349 686.313 248.996 685.786 247.725L685.324 247.917C684.802 246.657 684.118 245.481 683.298 244.414L683.694 244.109C682.843 243.001 681.849 242.007 680.741 241.155L680.436 241.552C679.369 240.732 678.193 240.048 676.933 239.526L677.125 239.064C675.854 238.537 674.501 238.169 673.09 237.985L673.025 238.481C672.363 238.394 671.687 238.35 671 238.35H669.036V237.85H665.107V238.35H661.179V237.85H657.25V238.35H653.321V237.85H649.393V238.35H645.464V237.85H641.536V238.35H637.607V237.85H633.679V238.35H629.75V237.85H625.821V238.35H621.893V237.85H617.964V238.35H614.036V237.85H610.107V238.35H606.179V237.85H602.25V238.35H598.321V237.85H594.393V238.35H590.464V237.85H586.536V238.35H582.607V237.85H578.679V238.35H574.75V237.85H570.821V238.35H566.893V237.85H562.964V238.35H561C560.313 238.35 559.637 238.394 558.975 238.481L558.91 237.985C557.499 238.169 556.146 238.537 554.875 239.064L555.067 239.526C553.807 240.048 552.631 240.732 551.564 241.552L551.259 241.155C550.151 242.007 549.157 243.001 548.306 244.109L548.702 244.414C547.882 245.481 547.198 246.657 546.676 247.917L546.214 247.725C545.687 248.996 545.319 250.349 545.135 251.76L545.631 251.825C545.545 252.487 545.5 253.163 545.5 253.85V255.814H545V259.743H545.5V263.671H545V267.6H545.5V271.528H545V275.457H545.5V279.386H545V283.314H545.5V287.243H545V291.171H545.5V295.1H545V299.028H545.5V302.957H545V306.886H545.5V310.814H545V314.743H545.5V318.671H545V322.6H545.5V326.528H545V330.457H545.5V334.386H545V338.314H545.5V342.243H545V346.171H545.5V350.1H545V354.028H545.5V357.957H545V361.886H545.5V363.85C545.5 364.536 545.545 365.212 545.631 365.875L545.135 365.94C545.319 367.351 545.687 368.704 546.214 369.974L546.676 369.783C547.198 371.043 547.882 372.219 548.702 373.286L548.306 373.59C549.157 374.699 550.151 375.692 551.259 376.544L551.564 376.148C552.631 376.968 553.807 377.651 555.067 378.174L554.875 378.636C556.146 379.163 557.499 379.531 558.91 379.715L558.975 379.219C559.637 379.305 560.313 379.35 561 379.35H562.964V379.85H566.893V379.35H570.821V379.85H574.75V379.35H578.679V379.85H582.607V379.35H586.536V379.85H590.464V379.35H594.393V379.85H598.321V379.35H602.25V379.85H606.179V379.35H610.107V379.85H614.036V379.35H617.964V379.85H621.893V379.35H625.821V379.85H629.75V379.35H633.679V379.85H637.607V379.35H641.536V379.85H645.464V379.35H649.393V379.85H653.321V379.35H657.25V379.85H661.179V379.35H665.107V379.85H669.036V379.35H671Z" stroke="url(#paint4_linear_3057_65254)" stroke-opacity="0.4" stroke-dasharray="4 4" shape-rendering="crispEdges"/>
</g>
<rect x="-0.5" y="0.5" width="141" height="141" rx="15.5" transform="matrix(-1 0 0 1 263 379.85)" stroke="#D7EEF9" stroke-dasharray="4 4"/>
<rect x="-0.5" y="0.5" width="141" height="141" rx="15.5" transform="matrix(-1 0 0 1 404 379.85)" stroke="#D7EEF9" stroke-dasharray="4 4"/>
<rect x="-0.5" y="0.5" width="141" height="141" rx="15.5" transform="matrix(-1 0 0 1 545 379.85)" stroke="#D7EEF9" stroke-dasharray="4 4"/>
<path d="M569 521.35C568.379 521.35 567.763 521.326 567.154 521.278L567.115 521.777C565.845 521.678 564.602 521.481 563.395 521.192L563.511 520.706C562.303 520.417 561.132 520.034 560.005 519.567L559.813 520.029C558.646 519.545 557.525 518.971 556.459 518.316L556.72 517.89C555.669 517.244 554.672 516.518 553.738 515.72L553.413 516.1C552.457 515.283 551.567 514.392 550.75 513.437L551.13 513.112C550.332 512.178 549.605 511.181 548.96 510.13L548.534 510.391C547.879 509.325 547.305 508.204 546.821 507.037L547.283 506.845C546.816 505.718 546.433 504.546 546.144 503.339L545.658 503.455C545.369 502.248 545.172 501.005 545.073 499.735L545.571 499.696C545.524 499.087 545.5 498.471 545.5 497.85V495.888H545V491.965H545.5V488.042H545V484.119H545.5V480.196H545V476.273H545.5V472.35H545V468.427H545.5V464.504H545V460.581H545.5V456.658H545V452.734H545.5V448.811H545V444.888H545.5V440.965H545V437.042H545.5V433.119H545V429.196H545.5V425.273H545V421.35H545.5V417.427H545V413.504H545.5V409.581H545V405.658H545.5V401.734H545V397.811H545.5V395.85C545.5 395.163 545.545 394.487 545.631 393.825L545.135 393.76C545.319 392.349 545.687 390.996 546.214 389.725L546.676 389.917C547.198 388.657 547.882 387.481 548.702 386.414L548.306 386.109C549.157 385.001 550.151 384.007 551.259 383.155L551.564 383.552C552.631 382.732 553.807 382.048 555.067 381.526L554.875 381.064C556.146 380.537 557.499 380.169 558.91 379.985L558.975 380.481C559.637 380.394 560.313 380.35 561 380.35H562.964V379.85H566.893V380.35H570.821V379.85H574.75V380.35H578.679V379.85H582.607V380.35H586.536V379.85H590.464V380.35H594.393V379.85H598.321V380.35H602.25V379.85H606.179V380.35H610.107V379.85H614.036V380.35H617.964V379.85H621.893V380.35H625.821V379.85H629.75V380.35H633.679V379.85H637.607V380.35H641.536V379.85H645.464V380.35H649.393V379.85H653.321V380.35H657.25V379.85H661.179V380.35H665.107V379.85H669.036V380.35H671C671.687 380.35 672.363 380.394 673.025 380.481L673.09 379.985C674.501 380.169 675.854 380.537 677.125 381.064L676.933 381.526C678.193 382.048 679.369 382.732 680.436 383.552L680.741 383.155C681.849 384.007 682.843 385.001 683.694 386.109L683.298 386.414C684.118 387.481 684.802 388.657 685.324 389.917L685.786 389.725C686.313 390.996 686.681 392.349 686.865 393.76L686.369 393.825C686.455 394.487 686.5 395.163 686.5 395.85V397.814H687V401.743H686.5V405.671H687V409.6H686.5V413.528H687V417.457H686.5V421.386H687V425.314H686.5V429.243H687V433.171H686.5V437.1H687V441.028H686.5V444.957H687V448.886H686.5V452.814H687V456.743H686.5V460.671H687V464.6H686.5V468.528H687V472.457H686.5V476.386H687V480.314H686.5V484.243H687V488.171H686.5V492.1H687V496.028H686.5V499.957H687V503.886H686.5V505.85C686.5 506.536 686.455 507.212 686.369 507.875L686.865 507.94C686.681 509.351 686.313 510.704 685.786 511.974L685.324 511.783C684.802 513.043 684.118 514.219 683.298 515.286L683.694 515.59C682.843 516.699 681.849 517.692 680.741 518.544L680.436 518.148C679.369 518.968 678.193 519.651 676.933 520.174L677.125 520.636C675.854 521.163 674.501 521.531 673.09 521.715L673.025 521.219C672.363 521.305 671.687 521.35 671 521.35H669.038V521.85H665.115V521.35H661.192V521.85H657.269V521.35H653.346V521.85H649.423V521.35H645.5V521.85H641.577V521.35H637.654V521.85H633.731V521.35H629.808V521.85H625.885V521.35H621.962V521.85H618.038V521.35H614.115V521.85H610.192V521.35H606.269V521.85H602.346V521.35H598.423V521.85H594.5V521.35H590.577V521.85H586.654V521.35H582.731V521.85H578.808V521.35H574.885V521.85H570.962V521.35H569Z" stroke="#D7EEF9" stroke-dasharray="4 4"/>
<rect x="122.5" y="522.35" width="141" height="141" rx="15.5" stroke="#D7EEF9" stroke-dasharray="4 4"/>
<g filter="url(#filter3_dd_3057_65254)">
<path d="M405 537.85C405 529.013 397.837 521.85 389 521.85H279C270.163 521.85 263 529.013 263 537.85V647.85C263 656.686 270.163 663.85 279 663.85H389C397.837 663.85 405 656.686 405 647.85V537.85Z" fill="url(#paint5_linear_3057_65254)" fill-opacity="0.3" shape-rendering="crispEdges"/>
<path d="M389 663.35C389.687 663.35 390.363 663.305 391.025 663.219L391.09 663.715C392.501 663.531 393.854 663.163 395.125 662.636L394.933 662.174C396.193 661.651 397.369 660.968 398.436 660.148L398.741 660.544C399.849 659.692 400.843 658.699 401.694 657.59L401.298 657.286C402.118 656.219 402.802 655.043 403.324 653.783L403.786 653.974C404.313 652.704 404.681 651.351 404.865 649.94L404.369 649.875C404.455 649.212 404.5 648.536 404.5 647.85V645.886H405V641.957H404.5V638.028H405V634.1H404.5V630.171H405V626.243H404.5V622.314H405V618.386H404.5V614.457H405V610.528H404.5V606.6H405V602.671H404.5V598.743H405V594.814H404.5V590.886H405V586.957H404.5V583.028H405V579.1H404.5V575.171H405V571.243H404.5V567.314H405V563.386H404.5V559.457H405V555.528H404.5V551.6H405V547.671H404.5V543.743H405V539.814H404.5V537.85C404.5 537.163 404.455 536.487 404.369 535.825L404.865 535.76C404.681 534.349 404.313 532.996 403.786 531.725L403.324 531.917C402.802 530.657 402.118 529.481 401.298 528.414L401.694 528.109C400.843 527.001 399.849 526.007 398.741 525.155L398.436 525.552C397.369 524.732 396.193 524.048 394.933 523.526L395.125 523.064C393.854 522.537 392.501 522.169 391.09 521.985L391.025 522.481C390.363 522.394 389.687 522.35 389 522.35H387.036V521.85H383.107V522.35H379.179V521.85H375.25V522.35H371.321V521.85H367.393V522.35H363.464V521.85H359.536V522.35H355.607V521.85H351.679V522.35H347.75V521.85H343.821V522.35H339.893V521.85H335.964V522.35H332.036V521.85H328.107V522.35H324.179V521.85H320.25V522.35H316.321V521.85H312.393V522.35H308.464V521.85H304.536V522.35H300.607V521.85H296.679V522.35H292.75V521.85H288.821V522.35H284.893V521.85H280.964V522.35H279C278.313 522.35 277.637 522.394 276.975 522.481L276.91 521.985C275.499 522.169 274.146 522.537 272.875 523.064L273.067 523.526C271.807 524.048 270.631 524.732 269.564 525.552L269.259 525.155C268.151 526.007 267.157 527.001 266.306 528.109L266.702 528.414C265.882 529.481 265.198 530.657 264.676 531.917L264.214 531.725C263.687 532.996 263.319 534.349 263.135 535.76L263.631 535.825C263.545 536.487 263.5 537.163 263.5 537.85V539.814H263V543.743H263.5V547.671H263V551.6H263.5V555.528H263V559.457H263.5V563.386H263V567.314H263.5V571.243H263V575.171H263.5V579.1H263V583.028H263.5V586.957H263V590.886H263.5V594.814H263V598.743H263.5V602.671H263V606.6H263.5V610.528H263V614.457H263.5V618.386H263V622.314H263.5V626.243H263V630.171H263.5V634.1H263V638.028H263.5V641.957H263V645.886H263.5V647.85C263.5 648.536 263.545 649.212 263.631 649.875L263.135 649.94C263.319 651.351 263.687 652.704 264.214 653.974L264.676 653.783C265.198 655.043 265.882 656.219 266.702 657.286L266.306 657.59C267.157 658.699 268.151 659.692 269.259 660.544L269.564 660.148C270.631 660.968 271.807 661.651 273.067 662.174L272.875 662.636C274.146 663.163 275.499 663.531 276.91 663.715L276.975 663.219C277.637 663.305 278.313 663.35 279 663.35H280.964V663.85H284.893V663.35H288.821V663.85H292.75V663.35H296.679V663.85H300.607V663.35H304.536V663.85H308.464V663.35H312.393V663.85H316.321V663.35H320.25V663.85H324.179V663.35H328.107V663.85H332.036V663.35H335.964V663.85H339.893V663.35H343.821V663.85H347.75V663.35H351.679V663.85H355.607V663.35H359.536V663.85H363.464V663.35H367.393V663.85H371.321V663.35H375.25V663.85H379.179V663.35H383.107V663.85H387.036V663.35H389Z" stroke="url(#paint6_linear_3057_65254)" stroke-opacity="0.4" stroke-dasharray="4 4" shape-rendering="crispEdges"/>
</g>
<rect x="404.5" y="522.35" width="141" height="141" rx="15.5" stroke="#D7EEF9" stroke-dasharray="4 4"/>
<g filter="url(#filter4_dd_3057_65254)">
<path d="M687 537.85C687 529.013 679.837 521.85 671 521.85H561C552.163 521.85 545 529.013 545 537.85V647.85C545 656.686 552.163 663.85 561 663.85H671C679.837 663.85 687 656.686 687 647.85V537.85Z" fill="url(#paint7_linear_3057_65254)" fill-opacity="0.3" shape-rendering="crispEdges"/>
<path d="M671 663.35C671.687 663.35 672.363 663.305 673.025 663.219L673.09 663.715C674.501 663.531 675.854 663.163 677.125 662.636L676.933 662.174C678.193 661.651 679.369 660.968 680.436 660.148L680.741 660.544C681.849 659.692 682.843 658.699 683.694 657.59L683.298 657.286C684.118 656.219 684.802 655.043 685.324 653.783L685.786 653.974C686.313 652.704 686.681 651.351 686.865 649.94L686.369 649.875C686.455 649.212 686.5 648.536 686.5 647.85V645.886H687V641.957H686.5V638.028H687V634.1H686.5V630.171H687V626.243H686.5V622.314H687V618.386H686.5V614.457H687V610.528H686.5V606.6H687V602.671H686.5V598.743H687V594.814H686.5V590.886H687V586.957H686.5V583.028H687V579.1H686.5V575.171H687V571.243H686.5V567.314H687V563.386H686.5V559.457H687V555.528H686.5V551.6H687V547.671H686.5V543.743H687V539.814H686.5V537.85C686.5 537.163 686.455 536.487 686.369 535.825L686.865 535.76C686.681 534.349 686.313 532.996 685.786 531.725L685.324 531.917C684.802 530.657 684.118 529.481 683.298 528.414L683.694 528.109C682.843 527.001 681.849 526.007 680.741 525.155L680.436 525.552C679.369 524.732 678.193 524.048 676.933 523.526L677.125 523.064C675.854 522.537 674.501 522.169 673.09 521.985L673.025 522.481C672.363 522.394 671.687 522.35 671 522.35H669.036V521.85H665.107V522.35H661.179V521.85H657.25V522.35H653.321V521.85H649.393V522.35H645.464V521.85H641.536V522.35H637.607V521.85H633.679V522.35H629.75V521.85H625.821V522.35H621.893V521.85H617.964V522.35H614.036V521.85H610.107V522.35H606.179V521.85H602.25V522.35H598.321V521.85H594.393V522.35H590.464V521.85H586.536V522.35H582.607V521.85H578.679V522.35H574.75V521.85H570.821V522.35H566.893V521.85H562.964V522.35H561C560.313 522.35 559.637 522.394 558.975 522.481L558.91 521.985C557.499 522.169 556.146 522.537 554.875 523.064L555.067 523.526C553.807 524.048 552.631 524.732 551.564 525.552L551.259 525.155C550.151 526.007 549.157 527.001 548.306 528.109L548.702 528.414C547.882 529.481 547.198 530.657 546.676 531.917L546.214 531.725C545.687 532.996 545.319 534.349 545.135 535.76L545.631 535.825C545.545 536.487 545.5 537.163 545.5 537.85V539.814H545V543.743H545.5V547.671H545V551.6H545.5V555.528H545V559.457H545.5V563.386H545V567.314H545.5V571.243H545V575.171H545.5V579.1H545V583.028H545.5V586.957H545V590.886H545.5V594.814H545V598.743H545.5V602.671H545V606.6H545.5V610.528H545V614.457H545.5V618.386H545V622.314H545.5V626.243H545V630.171H545.5V634.1H545V638.028H545.5V641.957H545V645.886H545.5V647.85C545.5 648.536 545.545 649.212 545.631 649.875L545.135 649.94C545.319 651.351 545.687 652.704 546.214 653.974L546.676 653.783C547.198 655.043 547.882 656.219 548.702 657.286L548.306 657.59C549.157 658.699 550.151 659.692 551.259 660.544L551.564 660.148C552.631 660.968 553.807 661.651 555.067 662.174L554.875 662.636C556.146 663.163 557.499 663.531 558.91 663.715L558.975 663.219C559.637 663.305 560.313 663.35 561 663.35H562.964V663.85H566.893V663.35H570.821V663.85H574.75V663.35H578.679V663.85H582.607V663.35H586.536V663.85H590.464V663.35H594.393V663.85H598.321V663.35H602.25V663.85H606.179V663.35H610.107V663.85H614.036V663.35H617.964V663.85H621.893V663.35H625.821V663.85H629.75V663.35H633.679V663.85H637.607V663.35H641.536V663.85H645.464V663.35H649.393V663.85H653.321V663.35H657.25V663.85H661.179V663.35H665.107V663.85H669.036V663.35H671Z" stroke="url(#paint8_linear_3057_65254)" stroke-opacity="0.4" stroke-dasharray="4 4" shape-rendering="crispEdges"/>
</g>
</g>
<defs>
<filter id="filter0_dd_3057_65254" x="-32" y="323.85" width="218" height="218" filterUnits="userSpaceOnUse" color-interpolation-filters="sRGB">
<feFlood flood-opacity="0" result="BackgroundImageFix"/>
<feColorMatrix in="SourceAlpha" type="matrix" values="0 0 0 0 0 0 0 0 0 0 0 0 0 0 0 0 0 0 127 0" result="hardAlpha"/>
<feOffset dy="30"/>
<feGaussianBlur stdDeviation="40"/>
<feComposite in2="hardAlpha" operator="out"/>
<feColorMatrix type="matrix" values="0 0 0 0 0.0470588 0 0 0 0 0.180392 0 0 0 0 0.258824 0 0 0 0.08 0"/>
<feBlend mode="normal" in2="BackgroundImageFix" result="effect1_dropShadow_3057_65254"/>
<feColorMatrix in="SourceAlpha" type="matrix" values="0 0 0 0 0 0 0 0 0 0 0 0 0 0 0 0 0 0 127 0" result="hardAlpha"/>
<feOffset dy="4"/>
<feGaussianBlur stdDeviation="6"/>
<feComposite in2="hardAlpha" operator="out"/>
<feColorMatrix type="matrix" values="0 0 0 0 0.0470588 0 0 0 0 0.181176 0 0 0 0 0.258824 0 0 0 0.02 0"/>
<feBlend mode="normal" in2="effect1_dropShadow_3057_65254" result="effect2_dropShadow_3057_65254"/>
<feBlend mode="normal" in="SourceGraphic" in2="effect2_dropShadow_3057_65254" result="shape"/>
</filter>
<filter id="filter1_dd_3057_65254" x="42" y="45.8499" width="302" height="302" filterUnits="userSpaceOnUse" color-interpolation-filters="sRGB">
<feFlood flood-opacity="0" result="BackgroundImageFix"/>
<feColorMatrix in="SourceAlpha" type="matrix" values="0 0 0 0 0 0 0 0 0 0 0 0 0 0 0 0 0 0 127 0" result="hardAlpha"/>
<feOffset dy="30"/>
<feGaussianBlur stdDeviation="40"/>
<feComposite in2="hardAlpha" operator="out"/>
<feColorMatrix type="matrix" values="0 0 0 0 0.0470588 0 0 0 0 0.180392 0 0 0 0 0.258824 0 0 0 0.08 0"/>
<feBlend mode="normal" in2="BackgroundImageFix" result="effect1_dropShadow_3057_65254"/>
<feColorMatrix in="SourceAlpha" type="matrix" values="0 0 0 0 0 0 0 0 0 0 0 0 0 0 0 0 0 0 127 0" result="hardAlpha"/>
<feOffset dy="4"/>
<feGaussianBlur stdDeviation="6"/>
<feComposite in2="hardAlpha" operator="out"/>
<feColorMatrix type="matrix" values="0 0 0 0 0.0470588 0 0 0 0 0.181176 0 0 0 0 0.258824 0 0 0 0.02 0"/>
<feBlend mode="normal" in2="effect1_dropShadow_3057_65254" result="effect2_dropShadow_3057_65254"/>
<feBlend mode="normal" in="SourceGraphic" in2="effect2_dropShadow_3057_65254" result="shape"/>
</filter>
<filter id="filter2_dd_3057_65254" x="465" y="187.85" width="302" height="302" filterUnits="userSpaceOnUse" color-interpolation-filters="sRGB">
<feFlood flood-opacity="0" result="BackgroundImageFix"/>
<feColorMatrix in="SourceAlpha" type="matrix" values="0 0 0 0 0 0 0 0 0 0 0 0 0 0 0 0 0 0 127 0" result="hardAlpha"/>
<feOffset dy="30"/>
<feGaussianBlur stdDeviation="40"/>
<feComposite in2="hardAlpha" operator="out"/>
<feColorMatrix type="matrix" values="0 0 0 0 0.0470588 0 0 0 0 0.180392 0 0 0 0 0.258824 0 0 0 0.08 0"/>
<feBlend mode="normal" in2="BackgroundImageFix" result="effect1_dropShadow_3057_65254"/>
<feColorMatrix in="SourceAlpha" type="matrix" values="0 0 0 0 0 0 0 0 0 0 0 0 0 0 0 0 0 0 127 0" result="hardAlpha"/>
<feOffset dy="4"/>
<feGaussianBlur stdDeviation="6"/>
<feComposite in2="hardAlpha" operator="out"/>
<feColorMatrix type="matrix" values="0 0 0 0 0.0470588 0 0 0 0 0.181176 0 0 0 0 0.258824 0 0 0 0.02 0"/>
<feBlend mode="normal" in2="effect1_dropShadow_3057_65254" result="effect2_dropShadow_3057_65254"/>
<feBlend mode="normal" in="SourceGraphic" in2="effect2_dropShadow_3057_65254" result="shape"/>
</filter>
<filter id="filter3_dd_3057_65254" x="183" y="471.85" width="302" height="302" filterUnits="userSpaceOnUse" color-interpolation-filters="sRGB">
<feFlood flood-opacity="0" result="BackgroundImageFix"/>
<feColorMatrix in="SourceAlpha" type="matrix" values="0 0 0 0 0 0 0 0 0 0 0 0 0 0 0 0 0 0 127 0" result="hardAlpha"/>
<feOffset dy="30"/>
<feGaussianBlur stdDeviation="40"/>
<feComposite in2="hardAlpha" operator="out"/>
<feColorMatrix type="matrix" values="0 0 0 0 0.0470588 0 0 0 0 0.180392 0 0 0 0 0.258824 0 0 0 0.08 0"/>
<feBlend mode="normal" in2="BackgroundImageFix" result="effect1_dropShadow_3057_65254"/>
<feColorMatrix in="SourceAlpha" type="matrix" values="0 0 0 0 0 0 0 0 0 0 0 0 0 0 0 0 0 0 127 0" result="hardAlpha"/>
<feOffset dy="4"/>
<feGaussianBlur stdDeviation="6"/>
<feComposite in2="hardAlpha" operator="out"/>
<feColorMatrix type="matrix" values="0 0 0 0 0.0470588 0 0 0 0 0.181176 0 0 0 0 0.258824 0 0 0 0.02 0"/>
<feBlend mode="normal" in2="effect1_dropShadow_3057_65254" result="effect2_dropShadow_3057_65254"/>
<feBlend mode="normal" in="SourceGraphic" in2="effect2_dropShadow_3057_65254" result="shape"/>
</filter>
<filter id="filter4_dd_3057_65254" x="465" y="471.85" width="302" height="302" filterUnits="userSpaceOnUse" color-interpolation-filters="sRGB">
<feFlood flood-opacity="0" result="BackgroundImageFix"/>
<feColorMatrix in="SourceAlpha" type="matrix" values="0 0 0 0 0 0 0 0 0 0 0 0 0 0 0 0 0 0 127 0" result="hardAlpha"/>
<feOffset dy="30"/>
<feGaussianBlur stdDeviation="40"/>
<feComposite in2="hardAlpha" operator="out"/>
<feColorMatrix type="matrix" values="0 0 0 0 0.0470588 0 0 0 0 0.180392 0 0 0 0 0.258824 0 0 0 0.08 0"/>
<feBlend mode="normal" in2="BackgroundImageFix" result="effect1_dropShadow_3057_65254"/>
<feColorMatrix in="SourceAlpha" type="matrix" values="0 0 0 0 0 0 0 0 0 0 0 0 0 0 0 0 0 0 127 0" result="hardAlpha"/>
<feOffset dy="4"/>
<feGaussianBlur stdDeviation="6"/>
<feComposite in2="hardAlpha" operator="out"/>
<feColorMatrix type="matrix" values="0 0 0 0 0.0470588 0 0 0 0 0.181176 0 0 0 0 0.258824 0 0 0 0.02 0"/>
<feBlend mode="normal" in2="effect1_dropShadow_3057_65254" result="effect2_dropShadow_3057_65254"/>
<feBlend mode="normal" in="SourceGraphic" in2="effect2_dropShadow_3057_65254" result="shape"/>
</filter>
<linearGradient id="paint0_linear_3057_65254" x1="104.775" y1="376.913" x2="48" y2="431.85" gradientUnits="userSpaceOnUse">
<stop stop-color="#D7EEF9"/>
<stop offset="1" stop-color="#D7EEF9" stop-opacity="0"/>
</linearGradient>
<linearGradient id="paint1_linear_3057_65254" x1="122" y1="106.85" x2="264" y2="237.85" gradientUnits="userSpaceOnUse">
<stop stop-color="#D7EEF9"/>
<stop offset="1" stop-color="#D7EEF9" stop-opacity="0"/>
</linearGradient>
<linearGradient id="paint2_linear_3057_65254" x1="258" y1="100.35" x2="122" y2="237.85" gradientUnits="userSpaceOnUse">
<stop stop-color="#D7EEF9"/>
<stop offset="1" stop-color="#D7EEF9" stop-opacity="0"/>
</linearGradient>
<linearGradient id="paint3_linear_3057_65254" x1="548" y1="245.35" x2="687" y2="379.85" gradientUnits="userSpaceOnUse">
<stop stop-color="#D7EEF9"/>
<stop offset="1" stop-color="#D7EEF9" stop-opacity="0"/>
</linearGradient>
<linearGradient id="paint4_linear_3057_65254" x1="551" y1="242.35" x2="687" y2="379.85" gradientUnits="userSpaceOnUse">
<stop stop-color="#D7EEF9"/>
<stop offset="1" stop-color="#D7EEF9" stop-opacity="0"/>
</linearGradient>
<linearGradient id="paint5_linear_3057_65254" x1="266" y1="529.35" x2="405" y2="663.85" gradientUnits="userSpaceOnUse">
<stop stop-color="#D7EEF9"/>
<stop offset="1" stop-color="#D7EEF9" stop-opacity="0"/>
</linearGradient>
<linearGradient id="paint6_linear_3057_65254" x1="269" y1="526.35" x2="405" y2="663.85" gradientUnits="userSpaceOnUse">
<stop stop-color="#D7EEF9"/>
<stop offset="1" stop-color="#D7EEF9" stop-opacity="0"/>
</linearGradient>
<linearGradient id="paint7_linear_3057_65254" x1="548" y1="529.35" x2="687" y2="663.85" gradientUnits="userSpaceOnUse">
<stop stop-color="#D7EEF9"/>
<stop offset="1" stop-color="#D7EEF9" stop-opacity="0"/>
</linearGradient>
<linearGradient id="paint8_linear_3057_65254" x1="551" y1="526.35" x2="687" y2="663.85" gradientUnits="userSpaceOnUse">
<stop stop-color="#D7EEF9"/>
<stop offset="1" stop-color="#D7EEF9" stop-opacity="0"/>
</linearGradient>
<clipPath id="clip0_3057_65254">
<path d="M0 24C0 10.7452 10.7452 0 24 0H711C724.255 0 735 10.7452 735 24V696C735 709.255 724.255 720 711 720H24C10.7451 720 0 709.255 0 696V24Z" fill="white"/>
</clipPath>
</defs>
</svg>
